<!--?xml version="1.0" standalone="no"?-->
              <svg id="sw-js-blob-svg" viewBox="0 0 100 100" xmlns="http://www.w3.org/2000/svg" version="1.1">
                    <defs> 
                        <linearGradient id="sw-gradient" x1="0" x2="1" y1="1" y2="0">
                            <stop id="stop1" stop-color="rgba(7, 13, 31, 1)" offset="0%"></stop>
                            <stop id="stop2" stop-color="rgba(29, 41, 61, 1)" offset="100%"></stop>
                        </linearGradient>
                    </defs>
                <path fill="url(#sw-gradient)" d="M24.3,-33.7C29.7,-29.5,30.9,-20,33.2,-11.2C35.4,-2.5,38.6,5.6,36.6,11.9C34.5,18.2,27.3,22.9,20.3,27.9C13.3,32.9,6.7,38.2,-1.3,40C-9.3,41.8,-18.6,40.1,-24.2,34.6C-29.8,29.2,-31.8,20.1,-34.9,11.2C-38.1,2.2,-42.4,-6.5,-41.5,-14.7C-40.5,-23,-34.3,-30.8,-26.5,-34.3C-18.7,-37.7,-9.4,-36.7,0,-36.8C9.5,-36.8,18.9,-37.9,24.3,-33.7Z" width="100%" height="100%" transform="translate(50 50)" stroke-width="0" style="transition: 0.3s;" stroke="url(#sw-gradient)"></path>
              </svg>